<mxfile host="65bd71144e">
    <diagram id="9q4XFmlCjz0utl9w3t9W" name="Page-1">
        <mxGraphModel dx="1257" dy="786" grid="1" gridSize="10" guides="1" tooltips="1" connect="1" arrows="1" fold="1" page="1" pageScale="1" pageWidth="827" pageHeight="1169" math="0" shadow="0">
            <root>
                <mxCell id="0"/>
                <mxCell id="1" parent="0"/>
                <mxCell id="2" value="" style="whiteSpace=wrap;html=1;fontFamily=Helvetica;fontSize=10;fontColor=default;fillColor=none;dashed=1;" vertex="1" parent="1">
                    <mxGeometry x="80" y="130" width="600" height="450" as="geometry"/>
                </mxCell>
                <mxCell id="44" value="" style="rounded=0;whiteSpace=wrap;html=1;fillColor=none;" vertex="1" parent="1">
                    <mxGeometry x="230" y="160" width="200" height="150" as="geometry"/>
                </mxCell>
                <mxCell id="112" style="edgeStyle=none;rounded=0;html=1;entryX=1.001;entryY=0.697;entryDx=0;entryDy=0;entryPerimeter=0;endArrow=classicThin;endFill=1;startArrow=dash;startFill=0;" edge="1" parent="1" source="65" target="2">
                    <mxGeometry relative="1" as="geometry"/>
                </mxCell>
                <mxCell id="121" value="4" style="edgeLabel;html=1;align=center;verticalAlign=middle;resizable=0;points=[];" vertex="1" connectable="0" parent="112">
                    <mxGeometry x="-0.4545" y="2" relative="1" as="geometry">
                        <mxPoint as="offset"/>
                    </mxGeometry>
                </mxCell>
                <mxCell id="65" value="" style="rounded=0;whiteSpace=wrap;html=1;fillColor=none;" vertex="1" parent="1">
                    <mxGeometry x="120" y="340" width="490" height="200" as="geometry"/>
                </mxCell>
                <mxCell id="11" value="&lt;b&gt;display_control&lt;br&gt;&lt;br&gt;&lt;/b&gt;" style="text;strokeColor=none;align=center;fillColor=none;html=1;verticalAlign=middle;whiteSpace=wrap;rounded=0;" vertex="1" parent="1">
                    <mxGeometry x="575" y="140" width="60" height="30" as="geometry"/>
                </mxCell>
                <mxCell id="12" value="&lt;p style=&quot;line-height: 200%;&quot;&gt;&lt;br&gt;&lt;/p&gt;" style="text;strokeColor=none;fillColor=none;align=left;verticalAlign=middle;spacingLeft=4;spacingRight=4;overflow=hidden;points=[[0,0.5],[1,0.5]];portConstraint=eastwest;rotatable=0;whiteSpace=wrap;html=1;fontSize=11;" vertex="1" parent="1">
                    <mxGeometry x="160" y="130" width="81" height="30" as="geometry"/>
                </mxCell>
                <mxCell id="14" value="display_mode&lt;br style=&quot;font-size: 10px;&quot;&gt;" style="text;html=1;align=center;verticalAlign=middle;resizable=0;points=[];autosize=1;strokeColor=none;fillColor=none;fontFamily=Helvetica;fontSize=10;" vertex="1" parent="1">
                    <mxGeometry x="112" y="390" width="90" height="30" as="geometry"/>
                </mxCell>
                <mxCell id="15" value="data" style="text;html=1;align=center;verticalAlign=middle;resizable=0;points=[];autosize=1;strokeColor=none;fillColor=none;fontFamily=Helvetica;fontSize=10;" vertex="1" parent="1">
                    <mxGeometry x="230" y="210" width="40" height="30" as="geometry"/>
                </mxCell>
                <mxCell id="16" value="display_mode&lt;br style=&quot;font-size: 10px;&quot;&gt;" style="text;html=1;align=center;verticalAlign=middle;resizable=0;points=[];autosize=1;strokeColor=none;fillColor=none;fontFamily=Helvetica;fontSize=10;" vertex="1" parent="1">
                    <mxGeometry x="230" y="260" width="90" height="30" as="geometry"/>
                </mxCell>
                <mxCell id="18" value="seg&lt;br&gt;" style="text;html=1;align=center;verticalAlign=middle;resizable=0;points=[];autosize=1;strokeColor=none;fillColor=none;fontFamily=Helvetica;fontSize=10;" vertex="1" parent="1">
                    <mxGeometry x="570" y="390" width="40" height="30" as="geometry"/>
                </mxCell>
                <mxCell id="19" value="an" style="text;html=1;align=center;verticalAlign=middle;resizable=0;points=[];autosize=1;strokeColor=none;fillColor=none;fontFamily=Helvetica;fontSize=10;" vertex="1" parent="1">
                    <mxGeometry x="580" y="425" width="30" height="30" as="geometry"/>
                </mxCell>
                <mxCell id="100" style="edgeStyle=none;rounded=0;html=1;exitX=0;exitY=0.5;exitDx=0;exitDy=0;entryX=0.133;entryY=-0.002;entryDx=0;entryDy=0;entryPerimeter=0;endArrow=none;endFill=0;" edge="1" parent="1" source="24" target="2">
                    <mxGeometry relative="1" as="geometry"/>
                </mxCell>
                <mxCell id="24" value="" style="triangle;whiteSpace=wrap;html=1;fontFamily=Helvetica;fontSize=10;fontColor=default;fillColor=none;direction=south;" vertex="1" parent="1">
                    <mxGeometry x="150" y="340" width="20" height="20" as="geometry"/>
                </mxCell>
                <mxCell id="42" value="&lt;p style=&quot;line-height: 200%;&quot;&gt;CLK&lt;/p&gt;&lt;p style=&quot;line-height: 200%;&quot;&gt;&lt;br&gt;&lt;/p&gt;" style="text;strokeColor=none;fillColor=none;align=left;verticalAlign=middle;spacingLeft=4;spacingRight=4;overflow=hidden;points=[[0,0.5],[1,0.5]];portConstraint=eastwest;rotatable=0;whiteSpace=wrap;html=1;fontSize=11;" vertex="1" parent="1">
                    <mxGeometry x="160" y="340" width="81" height="30" as="geometry"/>
                </mxCell>
                <mxCell id="60" style="edgeStyle=none;html=1;exitX=0.992;exitY=0.53;exitDx=0;exitDy=0;entryX=0.5;entryY=0;entryDx=0;entryDy=0;entryPerimeter=0;rounded=0;exitPerimeter=0;startArrow=dash;startFill=0;" edge="1" parent="1" source="44" target="78">
                    <mxGeometry relative="1" as="geometry">
                        <mxPoint x="550" y="235" as="targetPoint"/>
                        <Array as="points">
                            <mxPoint x="510" y="240"/>
                        </Array>
                    </mxGeometry>
                </mxCell>
                <mxCell id="118" value="4" style="edgeLabel;html=1;align=center;verticalAlign=middle;resizable=0;points=[];" vertex="1" connectable="0" parent="60">
                    <mxGeometry x="-0.8046" y="1" relative="1" as="geometry">
                        <mxPoint as="offset"/>
                    </mxGeometry>
                </mxCell>
                <mxCell id="61" style="edgeStyle=none;html=1;exitX=0.994;exitY=0.661;exitDx=0;exitDy=0;exitPerimeter=0;rounded=0;startArrow=dash;startFill=0;" edge="1" parent="1" source="58" target="77">
                    <mxGeometry relative="1" as="geometry">
                        <mxPoint x="490" y="272.38461538461536" as="targetPoint"/>
                        <Array as="points">
                            <mxPoint x="460" y="280"/>
                            <mxPoint x="460" y="310"/>
                        </Array>
                    </mxGeometry>
                </mxCell>
                <mxCell id="119" value="4" style="edgeLabel;html=1;align=center;verticalAlign=middle;resizable=0;points=[];" vertex="1" connectable="0" parent="61">
                    <mxGeometry x="-0.5803" relative="1" as="geometry">
                        <mxPoint as="offset"/>
                    </mxGeometry>
                </mxCell>
                <mxCell id="54" value="&lt;b&gt;digit_conversion&lt;br&gt;&lt;br&gt;&lt;/b&gt;" style="text;strokeColor=none;align=center;fillColor=none;html=1;verticalAlign=middle;whiteSpace=wrap;rounded=0;" vertex="1" parent="1">
                    <mxGeometry x="260" y="170" width="60" height="30" as="geometry"/>
                </mxCell>
                <mxCell id="56" value="is_negative&lt;br&gt;" style="text;html=1;align=center;verticalAlign=middle;resizable=0;points=[];autosize=1;strokeColor=none;fillColor=none;fontFamily=Helvetica;fontSize=10;" vertex="1" parent="1">
                    <mxGeometry x="360" y="180" width="70" height="30" as="geometry"/>
                </mxCell>
                <mxCell id="57" value="digit0&lt;br&gt;" style="text;html=1;align=center;verticalAlign=middle;resizable=0;points=[];autosize=1;strokeColor=none;fillColor=none;fontFamily=Helvetica;fontSize=10;" vertex="1" parent="1">
                    <mxGeometry x="380" y="220" width="50" height="30" as="geometry"/>
                </mxCell>
                <mxCell id="58" value="digit1&lt;br&gt;" style="text;html=1;align=center;verticalAlign=middle;resizable=0;points=[];autosize=1;strokeColor=none;fillColor=none;fontFamily=Helvetica;fontSize=10;" vertex="1" parent="1">
                    <mxGeometry x="380" y="260" width="50" height="30" as="geometry"/>
                </mxCell>
                <mxCell id="66" value="&lt;b&gt;sequential_logic&lt;br&gt;&lt;br&gt;&lt;/b&gt;" style="text;strokeColor=none;align=center;fillColor=none;html=1;verticalAlign=middle;whiteSpace=wrap;rounded=0;" vertex="1" parent="1">
                    <mxGeometry x="270" y="360" width="10" height="30" as="geometry"/>
                </mxCell>
                <mxCell id="75" style="edgeStyle=none;html=1;exitX=1.012;exitY=0.508;exitDx=0;exitDy=0;entryX=0.732;entryY=-0.002;entryDx=0;entryDy=0;entryPerimeter=0;rounded=0;exitPerimeter=0;" edge="1" parent="1" source="56">
                    <mxGeometry relative="1" as="geometry">
                        <mxPoint x="575.4800000000002" y="340.00399999999996" as="targetPoint"/>
                        <mxPoint x="500" y="235.58" as="sourcePoint"/>
                        <Array as="points">
                            <mxPoint x="575" y="195"/>
                        </Array>
                    </mxGeometry>
                </mxCell>
                <mxCell id="76" value="is_negative&lt;br&gt;" style="text;html=1;align=center;verticalAlign=middle;resizable=0;points=[];autosize=1;strokeColor=none;fillColor=none;fontFamily=Helvetica;fontSize=10;" vertex="1" parent="1">
                    <mxGeometry x="535" y="340" width="70" height="30" as="geometry"/>
                </mxCell>
                <mxCell id="77" value="digit1&lt;br&gt;" style="text;html=1;align=center;verticalAlign=middle;resizable=0;points=[];autosize=1;strokeColor=none;fillColor=none;fontFamily=Helvetica;fontSize=10;" vertex="1" parent="1">
                    <mxGeometry x="435" y="340" width="50" height="30" as="geometry"/>
                </mxCell>
                <mxCell id="78" value="digit0&lt;br&gt;" style="text;html=1;align=center;verticalAlign=middle;resizable=0;points=[];autosize=1;strokeColor=none;fillColor=none;fontFamily=Helvetica;fontSize=10;" vertex="1" parent="1">
                    <mxGeometry x="485" y="340" width="50" height="30" as="geometry"/>
                </mxCell>
                <mxCell id="90" value="&lt;p style=&quot;line-height: 200%;&quot;&gt;CLK&lt;/p&gt;&lt;p style=&quot;line-height: 200%;&quot;&gt;&lt;br&gt;&lt;/p&gt;" style="text;strokeColor=none;fillColor=none;align=left;verticalAlign=middle;spacingLeft=4;spacingRight=4;overflow=hidden;points=[[0,0.5],[1,0.5]];portConstraint=eastwest;rotatable=0;whiteSpace=wrap;html=1;fontSize=11;" vertex="1" parent="1">
                    <mxGeometry x="139" y="90" width="81" height="30" as="geometry"/>
                </mxCell>
                <mxCell id="93" style="edgeStyle=none;rounded=0;html=1;" edge="1" parent="1" source="91" target="2">
                    <mxGeometry relative="1" as="geometry"/>
                </mxCell>
                <mxCell id="91" value="data" style="text;html=1;align=center;verticalAlign=middle;resizable=0;points=[];autosize=1;strokeColor=none;fillColor=none;fontFamily=Helvetica;fontSize=10;" vertex="1" parent="1">
                    <mxGeometry x="40" y="200" width="40" height="30" as="geometry"/>
                </mxCell>
                <mxCell id="92" value="display_mode&lt;br style=&quot;font-size: 10px;&quot;&gt;" style="text;html=1;align=center;verticalAlign=middle;resizable=0;points=[];autosize=1;strokeColor=none;fillColor=none;fontFamily=Helvetica;fontSize=10;" vertex="1" parent="1">
                    <mxGeometry y="260" width="90" height="30" as="geometry"/>
                </mxCell>
                <mxCell id="97" style="edgeStyle=none;html=1;exitX=0.992;exitY=0.53;exitDx=0;exitDy=0;rounded=0;exitPerimeter=0;entryX=0.012;entryY=0.515;entryDx=0;entryDy=0;entryPerimeter=0;" edge="1" parent="1" target="16">
                    <mxGeometry relative="1" as="geometry">
                        <mxPoint x="210" y="275.25" as="targetPoint"/>
                        <mxPoint x="80.00000000000011" y="274.75" as="sourcePoint"/>
                        <Array as="points">
                            <mxPoint x="130" y="275"/>
                            <mxPoint x="161.60000000000002" y="275.25"/>
                            <mxPoint x="190" y="275"/>
                        </Array>
                    </mxGeometry>
                </mxCell>
                <mxCell id="98" style="edgeStyle=none;html=1;exitX=0.992;exitY=0.53;exitDx=0;exitDy=0;rounded=0;exitPerimeter=0;entryX=0.012;entryY=0.515;entryDx=0;entryDy=0;entryPerimeter=0;startArrow=dash;startFill=0;" edge="1" parent="1">
                    <mxGeometry relative="1" as="geometry">
                        <mxPoint x="230.00000000000003" y="220.69999999999993" as="targetPoint"/>
                        <mxPoint x="78.92000000000012" y="220" as="sourcePoint"/>
                        <Array as="points">
                            <mxPoint x="160.52" y="220.5"/>
                        </Array>
                    </mxGeometry>
                </mxCell>
                <mxCell id="117" value="6" style="edgeLabel;html=1;align=center;verticalAlign=middle;resizable=0;points=[];" vertex="1" connectable="0" parent="98">
                    <mxGeometry x="-0.8272" y="1" relative="1" as="geometry">
                        <mxPoint as="offset"/>
                    </mxGeometry>
                </mxCell>
                <mxCell id="107" style="edgeStyle=none;html=1;rounded=0;" edge="1" parent="1">
                    <mxGeometry relative="1" as="geometry">
                        <mxPoint x="121" y="404.8299999999999" as="targetPoint"/>
                        <mxPoint x="101" y="274.8299999999999" as="sourcePoint"/>
                        <Array as="points">
                            <mxPoint x="101" y="405"/>
                        </Array>
                    </mxGeometry>
                </mxCell>
                <mxCell id="113" style="edgeStyle=none;rounded=0;html=1;entryX=1.001;entryY=0.697;entryDx=0;entryDy=0;entryPerimeter=0;endArrow=classicThin;endFill=1;startArrow=dash;startFill=0;" edge="1" parent="1">
                    <mxGeometry relative="1" as="geometry">
                        <mxPoint x="609.9999999999998" y="404.5934917617236" as="sourcePoint"/>
                        <mxPoint x="680.5999999999999" y="405.40999999999997" as="targetPoint"/>
                    </mxGeometry>
                </mxCell>
                <mxCell id="122" value="7" style="edgeLabel;html=1;align=center;verticalAlign=middle;resizable=0;points=[];" vertex="1" connectable="0" parent="113">
                    <mxGeometry x="-0.6086" y="1" relative="1" as="geometry">
                        <mxPoint x="7" y="1" as="offset"/>
                    </mxGeometry>
                </mxCell>
                <mxCell id="114" value="an" style="text;html=1;align=center;verticalAlign=middle;resizable=0;points=[];autosize=1;strokeColor=none;fillColor=none;fontFamily=Helvetica;fontSize=10;" vertex="1" parent="1">
                    <mxGeometry x="680" y="435" width="30" height="30" as="geometry"/>
                </mxCell>
                <mxCell id="115" value="seg&lt;br&gt;" style="text;html=1;align=center;verticalAlign=middle;resizable=0;points=[];autosize=1;strokeColor=none;fillColor=none;fontFamily=Helvetica;fontSize=10;" vertex="1" parent="1">
                    <mxGeometry x="675" y="390" width="40" height="30" as="geometry"/>
                </mxCell>
            </root>
        </mxGraphModel>
    </diagram>
</mxfile>